#!OML:ASF H:\Pregnant\Project 1\Capture day 1\Session 1\femalepreg.ASF
:FULLY-SPECIFIED
:DEGREES
782
root 19.5912 15.4663 10.2579 -342.811 -9.22421 0.59632
lowerback -12.0639 -0.288122 6.74915
upperback -4.53653 -1.23094 1.93851
thorax 1.89614 -0.661986 -1.94065
lowerneck -16.1912 -4.50876 -0.247811
upperneck 22.4386 -5.38458 -3.66425
head 9.6775 -2.95827 -1.93141
rclavicle -1.32192e-014 1.19271e-014
rhumerus -27.5608 10.5534 -90.243
rradius 43.1841
rwrist -22.7358
rhand -23.3163 -18.9115
rfingers 7.12502
rthumb 3.13761 -48.8682
lclavicle -1.32192e-014 1.19271e-014
lhumerus -44.5301 -5.3718 86.0086
lradius 14.927
lwrist 35.4835
lhand -27.1943 -2.23773
lfingers 7.12502
lthumb -0.607775 27.7412
rfemur -44.7859 12.2367 19.8456
rtibia 40.4208
rfoot -7.27675 -9.35342
rtoes -15.9048
lfemur -44.2178 -7.00996 -19.4312
ltibia 57.1361
lfoot -9.55057 1.31423
ltoes -25.6517
783
root 19.5933 15.4766 10.3372 -342.762 -9.7019 0.772631
lowerback -12.0849 -0.282528 6.72633
upperback -4.56699 -1.22 1.86372
thorax 1.8754 -0.658657 -2.00452
lowerneck -16.1186 -4.70376 -0.544578
upperneck 22.1037 -5.60766 -3.55343
head 9.55522 -3.07414 -1.86084
rclavicle -4.47266e-015 -6.36111e-015
rhumerus -27.011 11.7098 -90.952
rradius 44.943
rwrist -23.9726
rhand -22.964 -18.9541
rfingers 7.12502
rthumb 3.47786 -48.9054
lclavicle -4.47266e-015 -6.36111e-015
lhumerus -45.1604 -4.88708 85.3817
lradius 14.6003
lwrist 31.9291
lhand -27.9538 -1.72459
lfingers 7.12502
lthumb -1.3413 28.2509
rfemur -44.6691 12.5263 19.5725
rtibia 40.5299
rfoot -7.55729 -9.37045
rtoes -16.0375
lfemur -44.311 -7.53194 -19.1319
ltibia 55.2986
lfoot -10.0912 1.81527
ltoes -25.359
784
root 19.5961 15.4861 10.4162 -342.716 -10.1848 0.940709
lowerback -12.1116 -0.267467 6.71184
upperback -4.5888 -1.19828 1.78359
thorax 1.86737 -0.649485 -2.07741
lowerneck -16.0778 -4.89406 -0.809433
upperneck 21.7662 -5.82781 -3.45935
head 9.43787 -3.18759 -1.80195
rclavicle 9.93923e-017 1.98785e-014
rhumerus -26.4657 12.8854 -91.617
rradius 46.6358
rwrist -24.9537
rhand -22.6536 -19.0043
rfingers 7.12502
rthumb 3.77762 -48.9506
lclavicle 9.93923e-017 1.98785e-014
lhumerus -46.0226 -5.17056 85.3933
lradius 14.818
lwrist 28.8333
lhand -29.0957 -1.76652
lfingers 7.12502
lthumb -2.44414 28.1992
rfemur -44.5519 12.8208 19.3041
rtibia 40.6332
rfoot -7.83261 -9.38672
rtoes -16.1851
lfemur -44.3466 -8.06437 -18.8013
ltibia 53.3706
lfoot -10.5662 2.27005
ltoes -25.209
785
root 19.5993 15.4945 10.4952 -342.668 -10.6876 1.1022
lowerback -12.158 -0.233958 6.70837
upperback -4.60197 -1.15513 1.68839
thorax 1.8803 -0.629012 -2.16979
lowerneck -16.0358 -5.08424 -1.04485
upperneck 21.4161 -6.05361 -3.37225
head 9.31581 -3.30177 -1.7506
rclavicle 9.14409e-015 -1.27222e-014
rhumerus -25.9291 14.0563 -92.2458
rradius 48.2646
rwrist -25.678
rhand -22.4112 -19.0307
rfingers 7.12502
rthumb 4.01168 -48.9727
lclavicle 9.14409e-015 -1.27222e-014
lhumerus -47.0286 -6.01055 85.8794
lradius 15.3981
lwrist 26.2696
lhand -30.357 -2.29266
lfingers 7.12502
lthumb -3.66218 27.6556
rfemur -44.4436 13.1246 19.037
rtibia 40.7328
rfoot -8.10271 -9.39298
rtoes -16.3368
lfemur -44.3356 -8.58791 -18.4513
ltibia 51.3783
lfoot -10.9822 2.68059
ltoes -25.1719
786
root 19.6026 15.5022 10.5744 -342.619 -11.2088 1.25659
lowerback -12.2259 -0.174905 6.72007
upperback -4.60506 -1.08154 1.57004
thorax 1.91741 -0.592692 -2.29122
lowerneck -16.0022 -5.27774 -1.25217
upperneck 21.067 -6.29286 -3.27614
head 9.19601 -3.4187 -1.70273
rclavicle 1.85864e-014 -1.59028e-015
rhumerus -25.3929 15.1861 -92.8341
rradius 49.8268
rwrist -26.1319
rhand -22.2259 -18.9873
rfingers 7.12502
rthumb 4.19062 -48.9258
lclavicle 1.85864e-014 -1.59028e-015
lhumerus -48.1087 -7.22133 86.677
lradius 16.2014
lwrist 24.3745
lhand -31.4883 -3.27155
lfingers 7.12502
lthumb -4.75468 26.6551
rfemur -44.3388 13.4357 18.7726
rtibia 40.8255
rfoot -8.37232 -9.38779
rtoes -16.4847
lfemur -44.2856 -9.10502 -18.0824
ltibia 49.3472
lfoot -11.3532 3.04197
ltoes -25.1557
787
root 19.6055 15.5095 10.6536 -342.56 -11.7517 1.39557
lowerback -12.3193 -0.0901076 6.74567
upperback -4.60915 -0.977132 1.43455
thorax 1.96971 -0.540796 -2.43452
lowerneck -15.931 -5.47571 -1.43114
upperneck 20.7121 -6.54712 -3.17621
head 9.0674 -3.53994 -1.65847
rclavicle 1.00883e-014 -1.74931e-014
rhumerus -24.8921 16.2692 -93.3817
rradius 51.3431
rwrist -26.297
rhand -22.0887 -18.8281
rfingers 7.12502
rthumb 4.32308 -48.764
lclavicle 1.00883e-014 -1.74931e-014
lhumerus -49.2201 -8.59485 87.6205
lradius 17.1765
lwrist 23.2503
lhand -32.2568 -4.23106
lfingers 7.12502
lthumb -5.4967 25.6777
rfemur -44.2425 13.7598 18.5177
rtibia 40.9068
rfoot -8.63911 -9.36937
rtoes -16.6163
lfemur -44.2164 -9.612 -17.6849
ltibia 47.3063
lfoot -11.6954 3.35153
ltoes -25.1223
788
root 19.608 15.5162 10.7324 -342.495 -12.3088 1.50746
lowerback -12.4268 0.0176595 6.78739
upperback -4.61582 -0.845039 1.29073
thorax 2.02958 -0.475102 -2.59179
lowerneck -15.8354 -5.67136 -1.59923
upperneck 20.371 -6.806 -3.05523
head 8.94072 -3.66026 -1.6089
rclavicle 8.49804e-015 -1.59028e-015
rhumerus -24.4275 17.3014 -93.8822
rradius 52.8204
rwrist -26.1834
rhand -21.9536 -18.5576
rfingers 7.12502
rthumb 4.45361 -48.4907
lclavicle 8.49804e-015 -1.59028e-015
lhumerus -50.3352 -10.0205 88.6304
lradius 18.2694
lwrist 22.8957
lhand -32.6484 -5.12059
lfingers 7.12502
lthumb -5.87474 24.778
rfemur -44.1453 14.098 18.2861
rtibia 40.9706
rfoot -8.90054 -9.34025
rtoes -16.7273
lfemur -44.136 -10.1174 -17.241
ltibia 45.2816
lfoot -12.0201 3.61581
ltoes -25.0548
